<svg xmlns="http://www.w3.org/2000/svg" viewBox="0 0 400 400"><defs><linearGradient id="bg" x2="1" y2="1"><stop stop-color="#d8b4ce"/><stop offset="1" stop-color="#744f72"/></linearGradient></defs><rect width="400" height="400" rx="200" fill="url(#bg)"/><path fill="#df704f" d="M58 400c14-117 65-151 142-151s128 34 142 151z"/><path fill="#8d604c" d="M169 235h62v52h-62z"/><path fill="#7d486c" d="M86 182c0-103 40-151 114-151s114 48 114 151l-32 75H118z"/><ellipse cx="200" cy="177" rx="72" ry="92" fill="#8d604c"/><path fill="#e4ae65" d="M127 181c18 13 42 19 73 19s55-6 73-19v43c-19 19-43 30-73 30s-54-11-73-30z"/><ellipse cx="169" cy="180" rx="6" ry="8" fill="#2a2023"/><ellipse cx="231" cy="180" rx="6" ry="8" fill="#2a2023"/><path d="M184 222q16 10 32 0" fill="none" stroke="#573129" stroke-width="5" stroke-linecap="round"/><path fill="#683c62" d="M122 400c12-66 43-98 78-98s66 32 78 98z"/></svg>