<svg xmlns="http://www.w3.org/2000/svg" viewBox="0 0 400 400"><defs><linearGradient id="bg" x2="1" y2="1"><stop stop-color="#e9b8a9"/><stop offset="1" stop-color="#a95870"/></linearGradient></defs><rect width="400" height="400" rx="200" fill="url(#bg)"/><path fill="#df704f" d="M62 400c12-100 63-136 138-136s126 36 138 136z"/><path fill="#c78d62" d="M169 238h62v48h-62z"/><ellipse cx="200" cy="171" rx="86" ry="103" fill="#c78d62"/><path fill="#a64f3c" d="M114 163c-7-77 22-119 87-119 72 0 96 44 84 122l-21-34-28-22-40 19-48-7z"/><path fill="#a64f3c" d="M112 163c-7 57 7 103 35 125-32-45-27-94-13-133zm176 0c7 57-7 103-35 125 32-45 27-94 13-133z"/><ellipse cx="166" cy="178" rx="7" ry="9" fill="#322126"/><ellipse cx="234" cy="178" rx="7" ry="9" fill="#322126"/><path d="M181 226q19 14 38 0" fill="none" stroke="#703d36" stroke-width="6" stroke-linecap="round"/><path fill="#71455c" d="M111 400c12-73 47-104 89-104s77 31 89 104z"/></svg>