<svg xmlns="http://www.w3.org/2000/svg" viewBox="0 0 400 400"><defs><linearGradient id="bg" x2="1" y2="1"><stop stop-color="#a9d8d0"/><stop offset="1" stop-color="#2d7777"/></linearGradient></defs><rect width="400" height="400" rx="200" fill="url(#bg)"/><path fill="#df704f" d="M67 400c9-94 61-132 133-132s124 38 133 132z"/><path fill="#8a573f" d="M169 240h62v48h-62z"/><ellipse cx="200" cy="169" rx="87" ry="104" fill="#8a573f"/><path fill="#191b22" d="M110 165c-4-83 19-128 89-128 69 0 93 42 91 117l-27-28-14-37-30 20-29-28-34 36-39-10z"/><circle cx="129" cy="104" r="22" fill="#191b22"/><circle cx="163" cy="72" r="25" fill="#191b22"/><circle cx="201" cy="63" r="25" fill="#191b22"/><circle cx="241" cy="75" r="24" fill="#191b22"/><circle cx="276" cy="107" r="21" fill="#191b22"/><ellipse cx="165" cy="174" rx="7" ry="9" fill="#201d20"/><ellipse cx="235" cy="174" rx="7" ry="9" fill="#201d20"/><path d="M179 223q21 12 42 0" fill="none" stroke="#512f2a" stroke-width="6" stroke-linecap="round"/></svg>